<svg width="400.667" height="400.666"    xmlns:dc="http://purl.org/dc/elements/1.1/"
   xmlns:cc="http://creativecommons.org/ns#"
   xmlns:rdf="http://www.w3.org/1999/02/22-rdf-syntax-ns#"
   xmlns:svg="http://www.w3.org/2000/svg"
   xmlns="http://www.w3.org/2000/svg"
   xmlns:xlink="http://www.w3.org/1999/xlink"
   xmlns:sodipodi="http://sodipodi.sourceforge.net/DTD/sodipodi-0.dtd"
   xmlns:inkscape="http://www.inkscape.org/namespaces/inkscape" xml:space="preserve" enable-background="new 0 0 400.667 400.666" version="1.1">
 <metadata id="metadata111">image/svg+xml</metadata>
 <defs id="defs109">
  <radialGradient r="2.16551" fy="124.89909" fx="276.83231" cy="124.89909" cx="276.83231" gradientTransform="matrix(1.9720261,0,0,1.9720261,-361.57264,26.139009)" gradientUnits="userSpaceOnUse" id="radialGradient7273" xlink:href="#linearGradient14803" />
  <linearGradient  id="linearGradient14803">
   <stop stop-color="#7d7d7d" offset="0" id="stop14805"/>
   <stop stop-color="#000000" stop-opacity="0.98431" offset="1" id="stop14807"/>
  </linearGradient>
  <radialGradient r="2.16551" fy="124.89909" fx="276.83231" cy="124.89909" cx="276.83231" gradientTransform="matrix(1.9720261,0,0,1.9720261,-329.26265,26.139875)" gradientUnits="userSpaceOnUse" id="radialGradient7275" xlink:href="#linearGradient14803" />
  <radialGradient r="2.16551" fy="124.89909" fx="276.83231" cy="124.89909" cx="276.83231" gradientTransform="matrix(1.9720261,0,0,1.9720261,-361.57312,26.139553)" gradientUnits="userSpaceOnUse" id="radialGradient7277" xlink:href="#linearGradient14803" />
  <radialGradient r="2.16551" fy="124.89909" fx="276.83231" cy="124.89909" cx="276.83231" gradientTransform="matrix(1.9720261,0,0,1.9720261,-329.26313,26.140419)" gradientUnits="userSpaceOnUse" id="radialGradient7279" xlink:href="#linearGradient14803" />
  <radialGradient r="68.25" fy="62.26813" fx="102.20761" cy="62.26813" cx="102.20761" gradientTransform="matrix(-0.36935451,1.3263919,-1.7062375,-0.4751285,249.01975,-48.040359)" gradientUnits="userSpaceOnUse" id="radialGradient10569" xlink:href="#linearGradient8985" />
  <linearGradient y2="169.4077" x2="163.70171" y1="142.3994" x1="148.1084" gradientUnits="userSpaceOnUse" id="linearGradient8985">
   <stop stop-color="#2d2d2d" id="stop8987" offset="0"/>
   <stop stop-color="#000000" id="stop8989" offset="1"/>
  </linearGradient>
  <linearGradient y2="0.63558" x2="0.05016" y1="0.3333" x1="0.74435" id="linearGradient8626" xlink:href="#linearGradient6822" />
  <linearGradient  id="linearGradient6822">
   <stop stop-color="#ff0000" offset="0" id="stop6824"/>
   <stop stop-color="#7c0000" offset="1" id="stop6826"/>
  </linearGradient>
 </defs>
 <g>
  <title>Layer 1</title>
  <g display="inline" transform="matrix(2.2213481,0,0,2.2213481,-86.85814,-4.9720701)" id="airspeedIndicatorHand"/>
  <g display="inline" transform="matrix(2.2213481,0,0,2.2213481,-86.85814,-4.9720701)" id="airspeedIndicatorFg"/>
  <g display="inline" id="g10746" transform="matrix(2.22135, 0, 0, 2.22135, -86.6871, -5.00106)">
   <circle fill="url(#radialGradient10569)" fill-rule="evenodd" stroke-width="0.96477" stroke-miterlimit="4" stroke-dashoffset="0" r="68.25" cy="92.274" cx="129.286" id="circle8194"/>
   <path fill="#ffffff" stroke-width="1.1" stroke-miterlimit="4"  d="m90.21204,126.48635l-12.06836,10.85351a68.2255,68.2255 0 0 0 51.14258,23.16016a68.2255,68.2255 0 0 0 29.11328,-6.61523l-6.51757,-14.82227a52.00063,52.00063 0 0 1 -22.59571,5.21289a52.00063,52.00063 0 0 1 -39.07422,-17.78906z" id="path8198"/>
   <path fill="#ffcc00"  d="m178.55123,113.65907l-6.35821,-2.82183c-9.03183,20.94338 -32.26974,32.67052 -54.96351,26.61402c-20.44895,-5.45743 -34.67355,-23.96416 -34.69473,-45.12881l-6.9252,0.0043c0.0243,24.30016 16.36813,45.56232 39.84656,51.82825c26.03838,6.94912 52.70948,-6.48179 63.09509,-30.49595l0,0.00002z" id="path8202"  />
   <path fill="#008000"  d="m172.46986,60.34572l-5.62696,4.08985c13.60331,18.30707 12.11442,44.29378 -4.49414,60.90234c-14.9657,14.96566 -38.10834,18.00806 -56.4375,7.42578l-3.46484,5.9961c21.04459,12.15005 47.63357,8.65351 64.8164,-8.5293c19.05634,-19.05633 20.79014,-48.86791 5.20704,-69.88477z" id="path8204" />
   <path fill="#ffffff"    d="m65.21024,92.61529l0,-0.69277l13.85538,0l0,0.69277l-13.85538,0z" id="path8250"/>
   <path fill="none" fill-rule="evenodd" stroke="#000000" stroke-width="1.1" stroke-miterlimit="4" d="m133.85929,145.77735l0.30571,3.57738" id="path8272"    />
   <path fill="none" fill-rule="evenodd" stroke="#000000" stroke-width="1.1" stroke-miterlimit="4" d="m147.77325,142.68785l1.23653,3.37077" id="path8274"    />
   <path fill="none" fill-rule="evenodd" stroke="#000000" stroke-width="1.1" stroke-miterlimit="4" d="m106.16034,140.73824l-1.54645,3.24031" id="path8276"    />
   <path fill="none" fill-rule="evenodd" stroke="#000000" stroke-width="1.1" stroke-miterlimit="4" d="m95.52844,134.03348l-2.25693,2.79238" id="path8278"    />
   <path fill="none" fill-rule="evenodd" stroke="#000000" stroke-width="1.1" stroke-miterlimit="4" d="m119.87304,145.1402l-0.62904,3.53488" id="path8280"    />
   <path fill="none" fill-rule="evenodd" stroke="#000000" stroke-width="0.8" stroke-miterlimit="4" d="m90.41983,129.37519l-2.06425,1.98252" id="path8282"    />
   <path fill="none" fill-rule="evenodd" stroke="#000000" stroke-width="0.8" stroke-miterlimit="4" d="m100.78955,137.82741l-1.51054,2.43101" id="path8284"    />
   <path fill="none" fill-rule="evenodd" stroke="#000000" stroke-width="0.8" stroke-miterlimit="4" d="m112.80762,143.41813l-0.8695,2.72681" id="path8286"    />
   <path fill="none" fill-rule="evenodd" stroke="#000000" stroke-width="0.8" stroke-miterlimit="4" d="m126.94686,145.95736l-0.116,2.85973" id="path8288"    />
   <path fill="none" fill-rule="evenodd" stroke="#000000" stroke-width="0.8" stroke-miterlimit="4" d="m140.86441,144.74714l0.62511,2.79299" id="path8290"    />
   <g id="g9100">
    <path fill="#ffffff" d="m146.67688,56.71581l-1.99848,2.95982l1.99848,0l0,-2.95982m-0.30308,-1.50123l2.02688,0l0,4.46105l1.00871,0l0,1.32127l-1.00871,0l0,1.28812l-1.7238,0l0,-1.28812l-3.13505,0l0,-1.56279l2.83197,-4.21953" id="path8292" />
    <path fill="#ffffff" d="m154.31087,58.74269c-0.00001,-0.88399 -0.0837,-1.50594 -0.251,-1.86587c-0.16417,-0.36307 -0.442,-0.5446 -0.83348,-0.54462c-0.3915,0.00001 -0.6709,0.18155 -0.83823,0.54462c-0.16733,0.35993 -0.25099,0.98188 -0.25099,1.86587c0,0.89348 0.0837,1.52333 0.25099,1.88956c0.16733,0.36622 0.44673,0.54934 0.83823,0.54934c0.38832,0 0.66615,-0.18312 0.83348,-0.54934c0.16732,-0.36623 0.25099,-0.99608 0.251,-1.88956m1.82325,0.0142c0,1.17131 -0.25258,2.07584 -0.75771,2.71358c-0.50516,0.63459 -1.22183,0.95188 -2.15002,0.95188c-0.93136,0 -1.64962,-0.31729 -2.15476,-0.95188c-0.50514,-0.63774 -0.75771,-1.54226 -0.75771,-2.71358c0,-1.17445 0.25257,-2.07896 0.75771,-2.71356c0.50514,-0.63774 1.2234,-0.95661 2.15476,-0.95662c0.92819,0.00001 1.64486,0.31888 2.15002,0.95662c0.50513,0.63459 0.75771,1.53911 0.75771,2.71356" id="path8294" />
   </g>
   <g id="g9104">
    <path fill="#ffffff" d="m161.60016,78.69734c-0.31888,0 -0.55882,0.10419 -0.71983,0.31256c-0.15786,0.20522 -0.23679,0.51461 -0.23679,0.9282c0,0.41359 0.0789,0.72456 0.23679,0.93293c0.16101,0.20522 0.40095,0.30783 0.71983,0.30783c0.32202,0 0.56196,-0.10261 0.71983,-0.30783c0.16101,-0.20837 0.24152,-0.51934 0.24152,-0.93293c0,-0.41359 -0.0805,-0.72298 -0.24152,-0.9282c-0.15787,-0.20837 -0.39781,-0.31256 -0.71983,-0.31256m2.2542,-3.39552l0,1.30706c-0.29993,-0.14206 -0.5825,-0.24625 -0.84769,-0.31255c-0.2652,-0.06946 -0.52409,-0.10419 -0.77666,-0.10419c-0.54304,0 -0.96609,0.15155 -1.26917,0.45463c-0.30309,0.29993 -0.47989,0.74667 -0.5304,1.3402c0.20836,-0.15469 0.4341,-0.26993 0.6772,-0.3457c0.2431,-0.07892 0.5083,-0.11839 0.7956,-0.11839c0.72299,0 1.30548,0.21153 1.74748,0.63459c0.44516,0.42306 0.66774,0.97713 0.66774,1.66223c0,0.75772 -0.24784,1.36547 -0.7435,1.82326c-0.49568,0.45463 -1.16026,0.68194 -1.99374,0.68194c-0.91874,0 -1.63068,-0.3094 -2.13582,-0.9282c-0.50198,-0.62196 -0.75297,-1.5028 -0.75297,-2.64253c0,-1.16814 0.29361,-2.0853 0.88084,-2.75146c0.59038,-0.66931 1.39862,-1.00397 2.42469,-1.00397c0.32518,0 0.64089,0.02529 0.94715,0.07577c0.30623,0.0505 0.60932,0.1263 0.90925,0.22731" id="path8296" />
    <path fill="#ffffff" d="m169.29571,78.64524c-0.00001,-0.884 -0.0837,-1.50595 -0.25099,-1.86587c-0.16418,-0.36307 -0.44201,-0.5446 -0.83349,-0.54461c-0.39149,0.00001 -0.6709,0.18155 -0.83822,0.54461c-0.16734,0.35992 -0.251,0.98187 -0.251,1.86587c0,0.89348 0.0837,1.52333 0.251,1.88956c0.16732,0.36623 0.44673,0.54934 0.83822,0.54934c0.38832,0 0.66615,-0.18311 0.83349,-0.54934c0.16732,-0.36623 0.25098,-0.99608 0.25099,-1.88956m1.82325,0.0142c0,1.17131 -0.25258,2.07583 -0.75771,2.71357c-0.50515,0.63459 -1.22182,0.95188 -2.15002,0.95188c-0.93136,0 -1.64962,-0.31729 -2.15476,-0.95188c-0.50514,-0.63774 -0.75771,-1.54226 -0.75771,-2.71357c0,-1.17445 0.25257,-2.07897 0.75771,-2.71356c0.50514,-0.63775 1.2234,-0.95661 2.15476,-0.95662c0.9282,0.00001 1.64487,0.31887 2.15002,0.95662c0.50513,0.63459 0.75771,1.53911 0.75771,2.71356" id="path8298" />
   </g>
   <g id="g9108">
    <path fill="#ffffff" d="m162.33182,105.6118c-0.34097,0.00001 -0.60301,0.0931 -0.78612,0.27941c-0.18312,0.18629 -0.27468,0.45306 -0.27468,0.80034c0,0.34729 0.0916,0.61407 0.27468,0.80034c0.18311,0.18311 0.44515,0.27467 0.78612,0.27467c0.33782,0 0.59671,-0.0916 0.77667,-0.27467c0.17995,-0.18627 0.26993,-0.45305 0.26993,-0.80034c0,-0.35044 -0.09,-0.61722 -0.26993,-0.80034c-0.17996,-0.18626 -0.43885,-0.2794 -0.77667,-0.27941m-1.33073,-0.60143c-0.42938,-0.12944 -0.75298,-0.32833 -0.97082,-0.5967c-0.21785,-0.26835 -0.32677,-0.60302 -0.32677,-1.00397c0,-0.5967 0.22258,-1.05133 0.66774,-1.36389c0.44515,-0.31255 1.09868,-0.46883 1.96058,-0.46884c0.85559,0.00001 1.50597,0.15629 1.95113,0.46884c0.44515,0.30941 0.66773,0.76404 0.66773,1.36389c0,0.40096 -0.11051,0.73562 -0.3315,1.00397c-0.21785,0.26837 -0.54145,0.46726 -0.97082,0.5967c0.47988,0.1326 0.84138,0.34887 1.08448,0.64879c0.24625,0.29678 0.36938,0.67248 0.36939,1.1271c-0.00001,0.70089 -0.23364,1.23129 -0.70089,1.59121c-0.46411,0.35675 -1.15395,0.53513 -2.06952,0.53513c-0.91872,0 -1.61329,-0.17838 -2.08371,-0.53513c-0.46726,-0.35992 -0.70089,-0.89032 -0.70089,-1.59121c0,-0.45462 0.12155,-0.83032 0.36465,-1.1271c0.24626,-0.29993 0.60933,-0.51619 1.08922,-0.64879m0.42621,-1.41598c0,0.28099 0.0773,0.49725 0.23205,0.64879c0.15786,0.15155 0.38202,0.22732 0.67247,0.22731c0.28415,0.00001 0.50357,-0.0758 0.65827,-0.22731c0.1547,-0.15154 0.23205,-0.3678 0.23205,-0.64879c0,-0.28098 -0.0773,-0.49566 -0.23205,-0.64407c-0.1547,-0.15153 -0.37412,-0.2273 -0.65827,-0.22731c-0.29045,0.00001 -0.51461,0.0758 -0.67247,0.22731c-0.1547,0.15156 -0.23205,0.36624 -0.23205,0.64407" id="path8300" />
    <path fill="#ffffff" d="m170.15998,105.23295c-0.00001,-0.884 -0.0837,-1.50596 -0.251,-1.86588c-0.16417,-0.36306 -0.442,-0.5446 -0.83348,-0.54461c-0.39149,0.00001 -0.6709,0.18155 -0.83822,0.54461c-0.16734,0.35992 -0.251,0.98188 -0.251,1.86588c0,0.89347 0.0837,1.52332 0.251,1.88955c0.16732,0.36623 0.44673,0.54935 0.83822,0.54934c0.38832,0.00001 0.66615,-0.18311 0.83348,-0.54934c0.16733,-0.36623 0.25099,-0.99608 0.251,-1.88955m1.82325,0.0142c0,1.17131 -0.25258,2.07583 -0.75772,2.71358c-0.50514,0.63458 -1.22181,0.95187 -2.15001,0.95187c-0.93137,0 -1.64962,-0.31729 -2.15476,-0.95187c-0.50514,-0.63775 -0.75771,-1.54227 -0.75771,-2.71358c0,-1.17445 0.25257,-2.07897 0.75771,-2.71357c0.50514,-0.63773 1.22339,-0.95661 2.15476,-0.95661c0.9282,0 1.64487,0.31888 2.15001,0.95661c0.50514,0.6346 0.75772,1.53912 0.75772,2.71357" id="path8302" />
   </g>
   <g id="g9112">
    <path fill="#ffffff" d="m138.48863,127.99296l1.61017,0l0,-4.56997l-1.6528,0.34098l0,-1.24077l1.64333,-0.34096l1.7333,0l0,5.81073l1.61017,0l0,1.2597l-4.94417,0l0,-1.2597" id="path8304" />
    <path fill="#ffffff" d="m148.55693,125.71035c0,-0.884 -0.0837,-1.50596 -0.25099,-1.86588c-0.16418,-0.36307 -0.44201,-0.5446 -0.8335,-0.5446c-0.3915,0 -0.67092,0.18154 -0.83824,0.5446c-0.16733,0.35992 -0.251,0.98188 -0.25099,1.86588c-0.00001,0.89347 0.0837,1.52332 0.25099,1.88955c0.16732,0.36623 0.44674,0.54934 0.83824,0.54934c0.38833,0 0.66616,-0.18311 0.8335,-0.54934c0.16733,-0.36623 0.25099,-0.99608 0.25099,-1.88955m1.82329,0.0142c-0.00001,1.17131 -0.25258,2.07583 -0.75773,2.71358c-0.50516,0.63458 -1.22184,0.95187 -2.15005,0.95187c-0.93138,0 -1.64964,-0.31729 -2.15479,-0.95187c-0.50516,-0.63775 -0.75773,-1.54227 -0.75773,-2.71358c0,-1.17445 0.25257,-2.07898 0.75773,-2.71357c0.50515,-0.63774 1.22341,-0.95661 2.15479,-0.95661c0.92821,0 1.64489,0.31887 2.15005,0.95661c0.50515,0.63459 0.75772,1.53911 0.75773,2.71357" id="path8306" />
    <path fill="#ffffff" d="m155.30072,125.71035c-0.00001,-0.884 -0.0837,-1.50596 -0.251,-1.86588c-0.16418,-0.36307 -0.44201,-0.5446 -0.83351,-0.5446c-0.39149,0 -0.6709,0.18154 -0.83823,0.5446c-0.16733,0.35992 -0.25099,0.98188 -0.25099,1.86588c0,0.89347 0.0837,1.52332 0.25099,1.88955c0.16733,0.36623 0.44674,0.54934 0.83823,0.54934c0.38834,0 0.66617,-0.18311 0.83351,-0.54934c0.16732,-0.36623 0.25099,-0.99608 0.251,-1.88955m1.82328,0.0142c-0.00001,1.17131 -0.25258,2.07583 -0.75773,2.71358c-0.50516,0.63458 -1.22184,0.95187 -2.15006,0.95187c-0.93137,0 -1.64963,-0.31729 -2.15478,-0.95187c-0.50515,-0.63775 -0.75773,-1.54227 -0.75773,-2.71358c0,-1.17445 0.25258,-2.07898 0.75773,-2.71357c0.50515,-0.63774 1.22341,-0.95661 2.15478,-0.95661c0.92822,0 1.6449,0.31887 2.15006,0.95661c0.50515,0.63459 0.75772,1.53911 0.75773,2.71357" id="path8308" />
   </g>
   <g id="g9117">
    <path fill="#ffffff" d="m112.63262,131.89297l1.61015,0l0,-4.56997l-1.65277,0.34096l0,-1.24075l1.6433,-0.34098l1.73327,0l0,5.81074l1.61015,0l0,1.2597l-4.9441,0l0,-1.2597" id="path8310" />
    <path fill="#ffffff" d="m121.0338,131.81246l3.11137,0l0,1.34021l-5.13827,0l0,-1.34021l2.58098,-2.27788c0.23047,-0.20837 0.40095,-0.41201 0.51145,-0.61091c0.1105,-0.1989 0.16575,-0.40569 0.16576,-0.62038c-0.00001,-0.33149 -0.11209,-0.59827 -0.33624,-0.80034c-0.22101,-0.20205 -0.5162,-0.30308 -0.88558,-0.30309c-0.28415,0.00001 -0.59513,0.0616 -0.93294,0.1847c-0.33781,0.11998 -0.69931,0.29994 -1.08448,0.53988l0,-1.55333c0.41043,-0.13575 0.81612,-0.23835 1.21708,-0.30782c0.40096,-0.0726 0.79402,-0.10891 1.17919,-0.10892c0.84612,0.00001 1.50281,0.18628 1.97006,0.55882c0.47042,0.37255 0.70562,0.89189 0.70563,1.55805c-0.00001,0.38518 -0.0995,0.74509 -0.29835,1.07975c-0.1989,0.3315 -0.61723,0.77666 -1.25497,1.33547l-1.51069,1.326" id="path8312" />
    <path fill="#ffffff" d="m129.44444,129.61035c-0.00001,-0.884 -0.0837,-1.50596 -0.25099,-1.86588c-0.16418,-0.36307 -0.44201,-0.5446 -0.83349,-0.54461c-0.39149,0.00001 -0.6709,0.18155 -0.83822,0.54461c-0.16733,0.35992 -0.251,0.98188 -0.251,1.86588c0,0.89347 0.0837,1.52333 0.251,1.88955c0.16732,0.36623 0.44673,0.54935 0.83822,0.54935c0.38832,0 0.66615,-0.18312 0.83349,-0.54935c0.16732,-0.36622 0.25098,-0.99608 0.25099,-1.88955m1.82326,0.0142c-0.00001,1.1713 -0.25259,2.07582 -0.75772,2.71357c-0.50515,0.63459 -1.22182,0.95188 -2.15002,0.95188c-0.93136,0 -1.64961,-0.31729 -2.15475,-0.95188c-0.50515,-0.63775 -0.75772,-1.54227 -0.75772,-2.71357c0,-1.17445 0.25257,-2.07898 0.75772,-2.71357c0.50514,-0.63774 1.22339,-0.95661 2.15475,-0.95662c0.9282,0.00001 1.64487,0.31888 2.15002,0.95662c0.50513,0.63459 0.75771,1.53912 0.75772,2.71357" id="path8314" />
   </g>
   <g id="g9122">
    <path fill="#ffffff" d="m94.00095,118.5334l1.61014,0l0,-4.56997l-1.65276,0.34097l0,-1.24076l1.64329,-0.34098l1.73328,0l0,5.81074l1.61014,0l0,1.2597l-4.94409,0l0,-1.2597" id="path8316" />
    <path fill="#ffffff" d="m103.17878,114.22389l-1.99848,2.95983l1.99848,0l0,-2.95983m-0.30308,-1.50123l2.02688,0l0,4.46106l1.00871,0l0,1.32127l-1.00871,0l0,1.28812l-1.7238,0l0,-1.28812l-3.13505,0l0,-1.56279l2.83197,-4.21953" id="path8318" />
    <path fill="#ffffff" d="m110.81277,116.25078c-0.00001,-0.88399 -0.0837,-1.50595 -0.251,-1.86587c-0.16417,-0.36307 -0.442,-0.5446 -0.83348,-0.54462c-0.3915,0.00001 -0.6709,0.18155 -0.83823,0.54462c-0.16733,0.35992 -0.25099,0.98188 -0.25099,1.86587c0,0.89348 0.0837,1.52333 0.25099,1.88956c0.16733,0.36622 0.44673,0.54934 0.83823,0.54933c0.38832,0.00001 0.66615,-0.18311 0.83348,-0.54933c0.16732,-0.36623 0.25099,-0.99608 0.251,-1.88956m1.82325,0.0142c0,1.17131 -0.25258,2.07584 -0.75772,2.71358c-0.50515,0.63459 -1.22182,0.95188 -2.15001,0.95188c-0.93137,0 -1.64962,-0.31729 -2.15476,-0.95188c-0.50514,-0.63774 -0.75771,-1.54226 -0.75771,-2.71358c0,-1.17445 0.25257,-2.07896 0.75771,-2.71357c0.50514,-0.63773 1.22339,-0.9566 2.15476,-0.95661c0.92819,0.00001 1.64486,0.31888 2.15001,0.95661c0.50514,0.6346 0.75772,1.53912 0.75772,2.71357" id="path8320" />
   </g>
   <g id="g8773">
    <path fill="#ffffff" d="m85.94886,94.58795l1.61014,0l0,-4.56997l-1.65276,0.34096l0,-1.24075l1.64329,-0.34098l1.73328,0l0,5.81074l1.61014,0l0,1.2597l-4.94409,0l0,-1.2597" id="path8322" />
    <path fill="#ffffff" d="m95.06512,92.35742c-0.31887,0.00001 -0.55881,0.10419 -0.71983,0.31256c-0.15786,0.20522 -0.23678,0.51461 -0.23678,0.9282c0,0.41359 0.07893,0.72457 0.23678,0.93294c0.16102,0.20521 0.40096,0.30782 0.71983,0.30782c0.32203,0 0.56198,-0.10261 0.71984,-0.30782c0.16101,-0.20837 0.24151,-0.51935 0.24152,-0.93294c-0.00001,-0.41359 -0.08051,-0.72298 -0.24152,-0.9282c-0.15786,-0.20836 -0.39781,-0.31254 -0.71984,-0.31256m2.25421,-3.39552l0,1.30707c-0.29993,-0.14207 -0.5825,-0.24626 -0.84769,-0.31256c-0.26521,-0.06945 -0.5241,-0.10418 -0.77667,-0.10419c-0.54303,0.00001 -0.96608,0.15155 -1.26917,0.45463c-0.30308,0.29994 -0.47989,0.74668 -0.5304,1.34021c0.20837,-0.15469 0.43411,-0.26993 0.67721,-0.3457c0.2431,-0.07893 0.5083,-0.1184 0.7956,-0.1184c0.72299,0 1.30548,0.21153 1.74749,0.63459c0.44514,0.42306 0.66772,0.97714 0.66773,1.66224c-0.00001,0.75772 -0.24784,1.36547 -0.74351,1.82325c-0.49567,0.45463 -1.16025,0.68195 -1.99374,0.68195c-0.91873,0 -1.63066,-0.30941 -2.13581,-0.92821c-0.50199,-0.62195 -0.75298,-1.5028 -0.75298,-2.64253c0,-1.16814 0.29362,-2.08529 0.88085,-2.75146c0.59038,-0.6693 1.39861,-1.00396 2.42469,-1.00396c0.32518,0 0.6409,0.02529 0.94714,0.07577c0.30624,0.0505 0.60933,0.12629 0.90926,0.22731" id="path8324" />
    <path fill="#ffffff" d="m102.76068,92.30533c0,-0.884 -0.0837,-1.50596 -0.251,-1.86587c-0.16417,-0.36307 -0.442,-0.54461 -0.83349,-0.54462c-0.39149,0.00001 -0.67089,0.18155 -0.83822,0.54462c-0.16733,0.35991 -0.251,0.98187 -0.25099,1.86587c-0.00001,0.89347 0.08366,1.52332 0.25099,1.88955c0.16733,0.36623 0.44673,0.54934 0.83822,0.54934c0.38833,0 0.66616,-0.18311 0.83349,-0.54934c0.16733,-0.36623 0.251,-0.99608 0.251,-1.88955m1.82325,0.0142c-0.00001,1.17131 -0.25258,2.07583 -0.75771,2.71358c-0.50516,0.63458 -1.22183,0.95188 -2.15003,0.95188c-0.93135,0 -1.6496,-0.3173 -2.15475,-0.95188c-0.50515,-0.63775 -0.75772,-1.54227 -0.75772,-2.71358c0,-1.17445 0.25257,-2.07898 0.75772,-2.71356c0.50515,-0.63774 1.2234,-0.95661 2.15475,-0.95662c0.9282,0.00001 1.64487,0.31888 2.15003,0.95662c0.50513,0.63458 0.7577,1.53911 0.75771,2.71356" id="path8326" />
   </g>
   <g id="g8778">
    <path fill="#ffffff" d="m88.27034,79.82215l1.61015,0l0,-4.56997l-1.65277,0.34097l0,-1.24076l1.64329,-0.34097l1.73328,0l0,5.81073l1.61015,0l0,1.25971l-4.9441,0l0,-1.25971" id="path8328" />
    <path fill="#ffffff" d="m97.25401,77.91839c-0.34098,0 -0.60302,0.09314 -0.78613,0.27941c-0.18312,0.18627 -0.27467,0.45306 -0.27467,0.80033c0,0.3473 0.09156,0.61407 0.27467,0.80035c0.18311,0.18311 0.44515,0.27466 0.78613,0.27466c0.33781,0 0.59669,-0.09156 0.77665,-0.27466c0.17996,-0.18628 0.26994,-0.45305 0.26994,-0.80035c0,-0.35043 -0.08998,-0.61721 -0.26994,-0.80033c-0.17996,-0.18627 -0.43884,-0.27941 -0.77665,-0.27941m-1.33074,-0.60143c-0.42937,-0.12945 -0.75298,-0.32835 -0.97083,-0.5967c-0.21784,-0.26836 -0.32676,-0.60302 -0.32675,-1.00397c-0.00001,-0.5967 0.22257,-1.05133 0.66773,-1.36389c0.44516,-0.31255 1.09869,-0.46883 1.96059,-0.46884c0.85558,0.00001 1.50595,0.15629 1.95112,0.46884c0.44515,0.3094 0.66773,0.76403 0.66773,1.36389c0,0.40096 -0.1105,0.73561 -0.3315,1.00397c-0.21784,0.26836 -0.54145,0.46726 -0.97082,0.5967c0.47988,0.1326 0.84137,0.34886 1.08448,0.64879c0.24625,0.29677 0.36938,0.67248 0.36938,1.1271c0,0.70089 -0.23363,1.23129 -0.70088,1.59121c-0.4641,0.35675 -1.15394,0.53513 -2.06951,0.53513c-0.91873,0 -1.61331,-0.17838 -2.08372,-0.53513c-0.46726,-0.35992 -0.70089,-0.89032 -0.70089,-1.59121c0,-0.45462 0.12155,-0.83033 0.36466,-1.1271c0.24625,-0.29993 0.60932,-0.51619 1.08921,-0.64879m0.42622,-1.41599c-0.00001,0.281 0.07735,0.49726 0.23205,0.64879c0.15785,0.15155 0.38201,0.22733 0.67247,0.22732c0.28414,0.00001 0.50356,-0.07577 0.65827,-0.22732c0.15469,-0.15153 0.23204,-0.36779 0.23205,-0.64879c-0.00001,-0.28098 -0.07735,-0.49567 -0.23205,-0.64406c-0.15471,-0.15153 -0.37413,-0.2273 -0.65827,-0.22731c-0.29046,0.00001 -0.51462,0.07578 -0.67247,0.22731c-0.1547,0.15155 -0.23206,0.36624 -0.23205,0.64406" id="path8330" />
    <path fill="#ffffff" d="m105.08216,77.53954c0,-0.884 -0.0837,-1.50597 -0.25099,-1.86588c-0.16418,-0.36307 -0.44201,-0.54461 -0.83349,-0.54461c-0.39149,0 -0.6709,0.18154 -0.83823,0.54461c-0.16733,0.35991 -0.25099,0.98188 -0.25099,1.86588c0,0.89347 0.0837,1.52332 0.25099,1.88954c0.16733,0.36624 0.44674,0.54935 0.83823,0.54935c0.38833,0 0.66615,-0.18311 0.83349,-0.54935c0.16732,-0.36622 0.25099,-0.99607 0.25099,-1.88954m1.82325,0.0142c0,1.1713 -0.25257,2.07582 -0.75771,2.71357c-0.50515,0.63459 -1.22183,0.95188 -2.15002,0.95188c-0.93136,0 -1.64961,-0.3173 -2.15476,-0.95188c-0.50514,-0.63775 -0.75771,-1.54227 -0.75771,-2.71357c0,-1.17445 0.25257,-2.07898 0.75771,-2.71357c0.50515,-0.63774 1.2234,-0.95661 2.15476,-0.95662c0.92819,0.00001 1.64487,0.31888 2.15002,0.95662c0.50514,0.63459 0.75771,1.53912 0.75771,2.71357" id="path8332" />
   </g>
   <g id="g8783">
    <path fill="#ffffff" d="m98.25505,66.18004l3.11137,0l0,1.34021l-5.13826,0l0,-1.34021l2.58097,-2.27788c0.23047,-0.20837 0.40096,-0.41201 0.51146,-0.61091c0.1105,-0.1989 0.16574,-0.40569 0.16575,-0.62038c-0.00001,-0.3315 -0.11208,-0.59828 -0.33624,-0.80034c-0.221,-0.20204 -0.5162,-0.30308 -0.88558,-0.30308c-0.28415,0 -0.59512,0.06159 -0.93294,0.1847c-0.33781,0.11997 -0.69931,0.29993 -1.08447,0.53987l0,-1.55332c0.41042,-0.13575 0.81611,-0.23836 1.21707,-0.30783c0.40096,-0.07259 0.79403,-0.1089 1.1792,-0.10892c0.84611,0.00001 1.5028,0.18629 1.97006,0.55882c0.47041,0.37255 0.70562,0.8919 0.70562,1.55805c0,0.38518 -0.09945,0.74509 -0.29835,1.07974c-0.1989,0.33151 -0.61723,0.77666 -1.25496,1.33548l-1.5107,1.326" id="path8334" />
    <path fill="#ffffff" d="m106.6657,63.97793c-0.00001,-0.884 -0.0837,-1.50596 -0.251,-1.86588c-0.16417,-0.36306 -0.442,-0.5446 -0.83348,-0.5446c-0.39149,0 -0.6709,0.18154 -0.83823,0.5446c-0.16733,0.35992 -0.25099,0.98188 -0.25099,1.86588c0,0.89348 0.0837,1.52333 0.25099,1.88955c0.16733,0.36623 0.44674,0.54935 0.83823,0.54935c0.38832,0 0.66615,-0.18312 0.83348,-0.54935c0.16732,-0.36622 0.25099,-0.99607 0.251,-1.88955m1.82325,0.0142c-0.00001,1.1713 -0.25258,2.07582 -0.75772,2.71356c-0.50515,0.6346 -1.22181,0.95188 -2.15001,0.95188c-0.93137,0 -1.64962,-0.31729 -2.15476,-0.95188c-0.50514,-0.63774 -0.75771,-1.54226 -0.75771,-2.71356c0,-1.17446 0.25257,-2.07898 0.75771,-2.71357c0.50514,-0.63774 1.22339,-0.95661 2.15476,-0.95662c0.9282,0.00001 1.64486,0.31888 2.15001,0.95662c0.50514,0.63459 0.75771,1.53911 0.75772,2.71357" id="path8336" />
    <path fill="#ffffff" d="m113.40936,63.97793c0,-0.884 -0.0837,-1.50596 -0.25099,-1.86588c-0.16418,-0.36306 -0.442,-0.5446 -0.83349,-0.5446c-0.39149,0 -0.6709,0.18154 -0.83822,0.5446c-0.16733,0.35992 -0.251,0.98188 -0.25099,1.86588c-0.00001,0.89348 0.0837,1.52333 0.25099,1.88955c0.16732,0.36623 0.44673,0.54935 0.83822,0.54935c0.38833,0 0.66616,-0.18312 0.83349,-0.54935c0.16733,-0.36622 0.25099,-0.99607 0.25099,-1.88955m1.82326,0.0142c-0.00001,1.1713 -0.25258,2.07582 -0.75772,2.71356c-0.50515,0.6346 -1.22182,0.95188 -2.15002,0.95188c-0.93136,0 -1.6496,-0.31729 -2.15475,-0.95188c-0.50515,-0.63774 -0.75772,-1.54226 -0.75772,-2.71356c0,-1.17446 0.25257,-2.07898 0.75772,-2.71357c0.50515,-0.63774 1.22339,-0.95661 2.15475,-0.95662c0.9282,0.00001 1.64487,0.31888 2.15002,0.95662c0.50514,0.63459 0.75771,1.53911 0.75772,2.71357" id="path8338" />
   </g>
   <g id="g9040">
    <path fill="#ffffff" stroke-width="1px" d="m116.45473,87.88158l-1.21086,0l-0.48134,-1.25223l-2.20362,0l-0.45501,1.25223l-1.18078,0l2.14721,-5.51281l1.17702,0l2.20738,5.51281zm-2.04944,-2.18106l-0.75961,-2.04568l-0.74457,2.04568l1.50418,0z" id="path8340" />
    <path fill="#ffffff" stroke-width="1px" d="m116.70008,87.88158l0,-5.51281l1.11309,0l0,5.51281l-1.11309,0z" id="path8342" />
    <path fill="#ffffff" stroke-width="1px" d="m118.54361,87.88158l0,-5.51281l2.34276,0q0.8837,0 1.28231,0.15041q0.40237,0.14666 0.64304,0.52647q0.24066,0.3798 0.24066,0.86866q0,0.62047 -0.36476,1.0266q-0.36476,0.40237 -1.09053,0.50766q0.36101,0.21058 0.59415,0.46253q0.23691,0.25195 0.63552,0.89499l0.67312,1.07549l-1.3312,0l-0.80473,-1.19959q-0.42869,-0.64303 -0.58663,-0.80849q-0.15794,-0.16922 -0.33468,-0.22939q-0.17674,-0.06393 -0.56031,-0.06393l-0.22563,0l0,2.30139l-1.11309,0l0,0.00001zm1.11309,-3.18134l0.82354,0q0.80098,0 1.00028,-0.06769q0.1993,-0.06769 0.31212,-0.23315q0.11281,-0.16546 0.11281,-0.41365q0,-0.27827 -0.15042,-0.44749q-0.14666,-0.17298 -0.41741,-0.2181q-0.13537,-0.0188 -0.81225,-0.0188l-0.86867,0l0,1.39888z" id="path8344" />
    <path fill="#ffffff" stroke-width="1px" d="m123.49328,86.08785l1.083,-0.1053q0.0978,0.54527 0.39485,0.80098q0.30084,0.25571 0.8085,0.25571q0.53774,0 0.80849,-0.22563q0.27451,-0.22939 0.27451,-0.53398q0,-0.19555 -0.11657,-0.33092q-0.11281,-0.13914 -0.39861,-0.24067q-0.19554,-0.06769 -0.89122,-0.24067q-0.89499,-0.22186 -1.25599,-0.54526q-0.50766,-0.45502 -0.50766,-1.10933q0,-0.42117 0.23691,-0.78594q0.24067,-0.36852 0.68816,-0.5603q0.45125,-0.19178 1.08677,-0.19178q1.03788,0 1.56058,0.45501q0.52646,0.45501 0.55279,1.21462l-1.1131,0.04889q-0.0714,-0.42493 -0.30835,-0.60919q-0.23315,-0.18802 -0.70321,-0.18802q-0.48509,0 -0.7596,0.1993q-0.17675,0.12786 -0.17675,0.3422q0,0.19554 0.16546,0.33468q0.21059,0.17674 1.02284,0.36852q0.81226,0.19179 1.19959,0.39861q0.39108,0.20307 0.60919,0.56031q0.22186,0.35348 0.22186,0.87618q0,0.47382 -0.26323,0.88747q-0.26323,0.41364 -0.74456,0.61671q-0.48134,0.1993 -1.19959,0.1993q-1.0454,0 -1.60571,-0.48134q-0.5603,-0.48509 -0.66935,-1.41016z" id="path8346" />
    <path fill="#ffffff" stroke-width="1px" d="m128.5896,87.88158l0,-5.51281l1.78621,0q1.01532,0 1.32367,0.08273q0.47382,0.12409 0.79346,0.5415q0.31963,0.41365 0.31963,1.07173q0,0.50766 -0.18426,0.85362q-0.18426,0.34596 -0.47005,0.54526q-0.28204,0.19555 -0.57535,0.25947q-0.39861,0.07897 -1.15446,0.07897l-0.72576,0l0,2.07953l-1.11309,0zm1.11309,-4.58022l0,1.56434l0.60919,0q0.65808,0 0.87994,-0.08649q0.22187,-0.08649 0.34596,-0.27075q0.12786,-0.18426 0.12786,-0.42869q0,-0.30084 -0.17674,-0.49638q-0.17674,-0.19554 -0.44749,-0.24443q-0.19931,-0.0376 -0.80098,-0.0376l-0.53774,0z" id="path8348" />
    <path fill="#ffffff" stroke-width="1px" d="m133.40388,87.88158l0,-5.51281l4.0876,0l0,0.93259l-2.97451,0l0,1.22214l2.76769,0l0,0.92883l-2.76769,0l0,1.50042l3.07981,0l0,0.92883l-4.1929,0z" id="path8350" />
    <path fill="#ffffff" stroke-width="1px" d="m138.21817,87.88158l0,-5.51281l4.0876,0l0,0.93259l-2.97451,0l0,1.22214l2.76769,0l0,0.92883l-2.76769,0l0,1.50042l3.0798,0l0,0.92883l-4.19289,0z" id="path8352" />
    <path fill="#ffffff" stroke-width="1px" d="m143.0287,82.36877l2.0344,0q0.68816,0 1.04916,0.10529q0.4851,0.1429 0.83106,0.50766q0.34596,0.36476 0.52646,0.89498q0.1805,0.52647 0.1805,1.30112q0,0.68064 -0.16922,1.17326q-0.20682,0.60167 -0.59039,0.97395q-0.28955,0.28203 -0.78217,0.43997q-0.36853,0.11658 -0.98524,0.11658l-2.09456,0l0,-5.51281zm1.11309,0.93259l0,3.65139l0.83105,0q0.4663,0 0.67312,-0.05265q0.27076,-0.06769 0.4475,-0.22939q0.1805,-0.1617 0.29331,-0.53022q0.11281,-0.37229 0.11281,-1.01156q0,-0.63928 -0.11281,-0.98148q-0.11281,-0.3422 -0.31588,-0.53398q-0.20306,-0.19178 -0.51518,-0.25947q-0.23314,-0.05265 -0.91378,-0.05265l-0.50014,0l0,0.00001z" id="path8354" />
   </g>
   <g font-style="normal" font-weight="normal" font-size="7.69654px" font-family="Arial" text-anchor="middle" fill="#ffffff" stroke-width="1px" id="g8356">
    <path  d="m117.50062,116.82886l0,-5.50934l1.11239,0l0,2.44651l2.24733,-2.44651l1.49571,0l-2.07446,2.14586l2.1872,3.36348l-1.43934,0l-1.51451,-2.58556l-0.90193,0.92073l0,1.66483l-1.11239,0z" id="path8358"/>
    <path  d="m122.45591,116.82886l0,-5.50934l1.08233,0l2.25485,3.67915l0,-3.67915l1.03347,0l0,5.50934l-1.11615,0l-2.22102,-3.59272l0,3.59272l-1.03348,0z" id="path8360"/>
    <path  d="m127.17821,114.10801q0,-0.84181 0.25179,-1.41304q0.18791,-0.4209 0.5111,-0.75537q0.32695,-0.33447 0.71404,-0.49606q0.51485,-0.21797 1.18755,-0.21797q1.21761,0 1.94668,0.75537q0.73282,0.75537 0.73282,2.10076q0,1.33412 -0.7253,2.08949q-0.72531,0.75162 -1.93917,0.75162q-1.22889,0 -1.9542,-0.74786q-0.72531,-0.75161 -0.72531,-2.06694zm1.14621,-0.0376q0,0.93576 0.43218,1.42055q0.43218,0.48104 1.09736,0.48104q0.66518,0 1.08984,-0.47728q0.42842,-0.48103 0.42842,-1.43934q0,-0.94704 -0.41714,-1.41304q-0.41339,-0.466 -1.10112,-0.466q-0.68773,0 -1.10863,0.47352q-0.42091,0.46976 -0.42091,1.42055z" id="path8362"/>
    <path  d="m134.02382,116.82886l0,-4.57734l-1.63476,0l0,-0.932l4.37816,0l0,0.932l-1.63101,0l0,4.57734l-1.11239,0z" id="path8364"/>
    <path  d="m136.58898,115.03626l1.08233,-0.10523q0.0977,0.54492 0.3946,0.80047q0.30064,0.25555 0.80798,0.25555q0.53741,0 0.80799,-0.22549q0.27434,-0.22924 0.27434,-0.53364q0,-0.19542 -0.1165,-0.33071q-0.11274,-0.13905 -0.39836,-0.24052q-0.19542,-0.0677 -0.89066,-0.24052q-0.89442,-0.22172 -1.2552,-0.54492q-0.50734,-0.45472 -0.50734,-1.10863q0,-0.4209 0.23676,-0.78544q0.24052,-0.36829 0.68773,-0.55995q0.45097,-0.19166 1.08608,-0.19166q1.03723,0 1.5596,0.45472q0.52613,0.45473 0.55244,1.21386l-1.11239,0.0489q-0.0714,-0.42466 -0.30816,-0.60881q-0.233,-0.1879 -0.70276,-0.1879q-0.4848,0 -0.75913,0.19917q-0.17663,0.12778 -0.17663,0.34199q0,0.19542 0.16535,0.33447q0.21045,0.17663 1.0222,0.36829q0.81174,0.19166 1.19882,0.39835q0.39084,0.20294 0.60881,0.55996q0.22173,0.35326 0.22173,0.87563q0,0.47352 -0.26307,0.88691q-0.26306,0.41338 -0.7441,0.61632q-0.48103,0.19918 -1.19882,0.19918q-1.04475,0 -1.6047,-0.48104q-0.55995,-0.48479 -0.66894,-1.40927l0,-0.00004z" id="path8366"/>
   </g>
   <g id="g9055">
    <g font-style="normal" font-weight="normal" font-size="8.17996px" font-family="Arial" text-anchor="middle" display="inline" fill="#ffffff" stroke-width="1px" id="g8368" transform="matrix(0.70705218,0,0,0.70705218,120.69698,60.436654)">
     <path id="path8370" d="m0.22747,4.34992l0,-5.85538l1.8972,0q1.07842,0 1.40593,0.08787q0.50326,0.13181 0.84276,0.57515q0.3395,0.43936 0.3395,1.13833q0,0.5392 -0.19571,0.90666q-0.19571,0.36746 -0.49926,0.57915q-0.29956,0.20769 -0.6111,0.27559q-0.42338,0.08388 -1.2262,0.08388l-0.77086,0l0,2.20875l-1.18226,0zm1.18226,-4.86484l0,1.66155l0.64704,0q0.69897,0 0.93463,-0.09186q0.23565,-0.09187 0.36746,-0.28758q0.1358,-0.19571 0.1358,-0.45533q0,-0.31953 -0.18773,-0.52722q-0.18772,-0.20769 -0.4753,-0.25962q-0.21169,-0.03994 -0.85075,-0.03994l-0.57115,0z" />
     <path id="path8372" d="m5.05465,4.34992l0,-5.85538l2.48834,0q0.93862,0 1.36199,0.15976q0.42737,0.15577 0.683,0.55918q0.25562,0.40341 0.25562,0.92264q0,0.65903 -0.38743,1.0904q-0.38743,0.42737 -1.15829,0.5392q0.38343,0.22367 0.63107,0.49128q0.25163,0.26761 0.675,0.9506l0.71495,1.14232l-1.41392,0l-0.85474,-1.27413q-0.45533,-0.68299 -0.62308,-0.85873q-0.16775,-0.17974 -0.35548,-0.24364q-0.18772,-0.0679 -0.59512,-0.0679l-0.23965,0l0,2.4444l-1.18226,0zm1.18226,-3.37903l0.87471,0q0.85075,0 1.06244,-0.07189q0.21169,-0.0719 0.33151,-0.24764q0.11983,-0.17574 0.11983,-0.43935q0,-0.29556 -0.15977,-0.4753q-0.15577,-0.18373 -0.44335,-0.23166q-0.14378,-0.01997 -0.86273,-0.01997l-0.92264,0l0,1.48581z" />
     <path id="path8374" d="m10.32119,4.34992l0,-5.85538l4.34161,0l0,0.99054l-3.15935,0l0,1.29809l2.93967,0l0,0.98655l-2.93967,0l0,1.59365l3.27118,0l0,0.98655l-4.45344,0z" />
     <path id="path8376" d="m14.84483,2.44472l1.1503,-0.11183q0.10385,0.57915 0.41938,0.85075q0.31953,0.2716 0.85874,0.2716q0.57116,0 0.85874,-0.23965q0.29157,-0.24364 0.29157,-0.56717q0,-0.20769 -0.12382,-0.35148q-0.11982,-0.14778 -0.42338,-0.25562q-0.20769,-0.0719 -0.9466,-0.25563q-0.9506,-0.23565 -1.33404,-0.57914q-0.53921,-0.48329 -0.53921,-1.17827q0,-0.44734 0.25163,-0.83477q0.25563,-0.39142 0.73093,-0.59512q0.47929,-0.2037 1.1543,-0.2037q1.10237,0 1.65756,0.48328q0.55917,0.48329 0.58713,1.29011l-1.18226,0.05192q-0.07589,-0.45134 -0.32752,-0.64705q-0.24763,-0.1997 -0.7469,-0.1997q-0.51524,0 -0.80681,0.21168q-0.18772,0.1358 -0.18772,0.36347q0,0.20769 0.17574,0.35548q0.22367,0.18772 1.0864,0.39142q0.86273,0.2037 1.27412,0.42338q0.41539,0.21568 0.64705,0.59512q0.23566,0.37545 0.23566,0.93063q0,0.50326 -0.27959,0.94261q-0.27959,0.43935 -0.79084,0.65504q-0.51125,0.21169 -1.27412,0.21169q-1.11037,0 -1.70549,-0.51125q-0.59513,-0.51524 -0.71096,-1.4978l0.00001,0z" />
     <path id="path8378" d="m19.66802,2.44472l1.1503,-0.11183q0.10385,0.57915 0.41939,0.85075q0.31953,0.2716 0.85873,0.2716q0.57116,0 0.85874,-0.23965q0.29157,-0.24364 0.29157,-0.56717q0,-0.20769 -0.12382,-0.35148q-0.11982,-0.14778 -0.42337,-0.25562q-0.2077,-0.0719 -0.94661,-0.25563q-0.9506,-0.23565 -1.33404,-0.57914q-0.5392,-0.48329 -0.5392,-1.17827q0,-0.44734 0.25163,-0.83477q0.25562,-0.39142 0.73092,-0.59512q0.47929,-0.2037 1.1543,-0.2037q1.10238,0 1.65756,0.48328q0.55918,0.48329 0.58713,1.29011l-1.18225,0.05192q-0.07589,-0.45134 -0.32752,-0.64705q-0.24764,-0.1997 -0.7469,-0.1997q-0.51524,0 -0.80681,0.21168q-0.18773,0.1358 -0.18773,0.36347q0,0.20769 0.17574,0.35548q0.22367,0.18772 1.0864,0.39142q0.86273,0.2037 1.27413,0.42338q0.41539,0.21568 0.64704,0.59512q0.23566,0.37545 0.23566,0.93063q0,0.50326 -0.27959,0.94261q-0.27959,0.43935 -0.79084,0.65504q-0.51124,0.21169 -1.27412,0.21169q-1.11037,0 -1.70549,-0.51125q-0.59512,-0.51524 -0.71095,-1.4978z" />
     <path id="path8380" d="m11.09775,12.52988l-1.2861,0l-0.51125,-1.33005l-2.34055,0l-0.48329,1.33005l-1.25415,0l2.28064,-5.85538l1.25016,0l2.34454,5.85538zm-2.17679,-2.31659l-0.80681,-2.17281l-0.79084,2.17281l1.59765,0z" />
     <path id="path8382" d="m11.13599,12.52988l0,-5.80745l1.18226,0l0,4.8209l2.93967,0l0,0.98655l-4.12193,0z" />
     <path id="path8384" d="m16.17487,12.52988l0,-4.86484l-1.73745,0l0,-0.99054l4.65315,0l0,0.99054l-1.73344,0l0,4.86484l-1.18226,0z" />
    </g>
    <g font-style="normal" font-weight="normal" font-size="5.78366px" font-family="Arial" text-anchor="middle" display="inline" fill="#ffffff" stroke-width="1px" id="g8386">
     <path id="path8388" d="m120.30346,33.96146l0,-3.43969l-1.22847,0l0,-0.70037l3.29002,0l0,0.70037l-1.22564,0l0,3.43969l-0.83591,0z" />
     <path id="path8390" d="m122.44288,33.96146l0,-4.14006l3.06974,0l0,0.70037l-2.23382,0l0,0.91782l2.0785,0l0,0.69754l-2.0785,0l0,1.12679l2.3129,0l0,0.69754l-3.14882,0z" />
     <path id="path8392" d="m125.84183,33.96146l0,-4.14006l1.25106,0l0.7512,2.82406l0.74272,-2.82406l1.25388,0l0,4.14006l-0.77661,0l0,-3.25895l-0.8218,3.25895l-0.80486,0l-0.81897,-3.25895l0,3.25895l-0.77662,0z" />
     <path id="path8394" d="m130.22356,33.96146l0,-4.14006l1.34142,0q0.76249,0 0.99407,0.06213q0.35583,0.09319 0.59587,0.40667q0.24004,0.31064 0.24004,0.80485q0,0.38125 -0.13837,0.64106q-0.13838,0.25981 -0.35301,0.40949q-0.2118,0.14685 -0.43208,0.19486q-0.29935,0.0593 -0.86698,0.0593l-0.54505,0l0,1.5617l-0.83591,0zm0.83591,-3.43969l0,1.1748l0.4575,0q0.49421,0 0.66083,-0.06495q0.16662,-0.06494 0.25981,-0.20333q0.096,-0.13837 0.096,-0.32194q0,-0.22592 -0.13273,-0.37277q-0.13273,-0.14685 -0.33606,-0.18357q-0.14968,-0.02824 -0.60153,-0.02824l-0.40384,0l0.00002,0z" />
     <path id="path8396" d="m138.48311,32.4393l0.81051,0.25699q-0.18639,0.67777 -0.62129,1.00819q-0.43208,0.32759 -1.09856,0.32759q-0.82462,0 -1.35554,-0.56199q-0.53093,-0.56481 -0.53093,-1.54193q0,-1.0336 0.53375,-1.60406q0.53374,-0.57329 1.40355,-0.57329q0.75967,0 1.23411,0.44903q0.28241,0.26546 0.42361,0.76249l-0.82745,0.19769q-0.0734,-0.32195 -0.30782,-0.50833q-0.23157,-0.18639 -0.56481,-0.18639q-0.46032,0 -0.74837,0.33041q-0.28523,0.33042 -0.28523,1.07032q0,0.78508 0.2824,1.11832q0.28241,0.33324 0.73426,0.33324q0.33324,0 0.57328,-0.2118q0.24004,-0.21181 0.34453,-0.66648z" />
    </g>
    <path fill="none" stroke="#ffffff" stroke-width="0.5" stroke-miterlimit="4" stroke-dashoffset="0" id="path8398" d="m135.2935,30.73397a0.71875,0.71875 0 0 1 -0.71875,0.71875a0.71875,0.71875 0 0 1 -0.71875,-0.71875a0.71875,0.71875 0 0 1 0.71875,-0.71875a0.71875,0.71875 0 0 1 0.71875,0.71875z" />
    <g font-style="normal" font-weight="bold" font-size="5.84589px" font-family="Sans" text-anchor="middle" fill="#ffffff" stroke-width="1px" id="g8400">
     <path id="path8402" d="m131.06366,38.05896q0,0.53663 -0.097,0.96194q-0.097,0.42246 -0.30257,0.69363q-0.21123,0.27688 -0.54234,0.4196q-0.33112,0.13987 -0.81637,0.13987q-0.47669,0 -0.81352,-0.14272q-0.33682,-0.14272 -0.54519,-0.42246q-0.21123,-0.27973 -0.30543,-0.69363q-0.0942,-0.41674 -0.0942,-0.95338q0,-0.55376 0.097,-0.96194q0.0971,-0.40819 0.30828,-0.69078q0.21122,-0.27973 0.54805,-0.4196q0.33682,-0.13987 0.80495,-0.13987q0.48811,0 0.81922,0.14558q0.33112,0.14272 0.54234,0.42816q0.20838,0.27974 0.30258,0.69078q0.0942,0.40818 0.0942,0.94482zm-1.10467,0q0,-0.7707 -0.15128,-1.09611q-0.15129,-0.32826 -0.50238,-0.32826q-0.3511,0 -0.50238,0.32826q-0.15129,0.32541 -0.15129,1.10182q0,0.75642 0.15414,1.09039q0.15414,0.33397 0.49953,0.33397q0.34539,0 0.49952,-0.33397q0.15414,-0.33397 0.15414,-1.0961z" />
    </g>
    <g font-style="normal" font-weight="bold" font-size="12px" font-family="Sans" text-anchor="middle" fill="#ffffff" stroke-width="1px" id="g8404" transform="matrix(0.48353022,0.05933584,-0.05933584,0.48353022,85.348101,9.2035499)">
     <path id="path8406" d="m108.23242,47.99844l-4.4707,0l0,-1.6875l4.4707,0l0,1.6875z" />
    </g>
    <g font-style="normal" font-weight="bold" font-size="12px" font-family="Sans" text-anchor="middle" fill="#ffffff" stroke-width="1px" id="g8408" transform="matrix(0.4828635,-0.06453725,0.06453725,0.4828635,48.290576,22.887292)">
     <path id="path8410" d="m154.36328,53.12735l-3.12305,0l0,3.09375l-1.60546,0l0,-3.09375l-3.12305,0l0,-1.57032l3.12305,0l0,-3.09375l1.60546,0l0,3.09375l3.12305,0l0,1.57032z" />
    </g>
    <g font-style="normal" font-weight="bold" font-size="5.84589px" font-family="Sans" text-anchor="middle" display="inline" fill="#ffffff" stroke-width="1px" id="g8412" transform="matrix(0.96996496,-0.2432447,0.2432447,0.96996496,0,0)">
     <path id="path8414" d="m104.00018,67.07723q0.13986,0.11988 0.22264,0.27973q0.0828,0.15985 0.0828,0.42531q0,0.29972 -0.11989,0.55947q-0.11703,0.25976 -0.36251,0.4453q-0.23977,0.17983 -0.56518,0.27688q-0.32255,0.0942 -0.78497,0.0942q-0.52807,0 -0.90771,-0.08278q-0.37678,-0.08278 -0.6137,-0.18554l0,-0.9334l0.11132,0q0.24548,0.14843 0.58516,0.2569q0.34253,0.10847 0.62512,0.10847q0.16556,0 0.35966,-0.02569q0.1941,-0.02854 0.32826,-0.11989q0.10562,-0.07136 0.16841,-0.17127q0.0628,-0.10276 0.0628,-0.294q0,-0.18554 -0.0856,-0.28545q-0.0856,-0.10276 -0.2255,-0.14557q-0.13987,-0.04567 -0.33683,-0.04853q-0.19695,-0.0057 -0.36536,-0.0057l-0.23407,0l0,-0.75928l0.24263,0q0.22264,0 0.39391,-0.01427q0.17127,-0.01427 0.29115,-0.06565q0.1256,-0.05423 0.1884,-0.14273q0.0628,-0.09134 0.0628,-0.26546q0,-0.12845 -0.0656,-0.20552q-0.0657,-0.07992 -0.16556,-0.12559q-0.11132,-0.05138 -0.2626,-0.06851q-0.15129,-0.01713 -0.25976,-0.01713q-0.26831,0 -0.5823,0.0942q-0.31399,0.09134 -0.608,0.26546l-0.10561,0l0,-0.92198q0.23406,-0.0942 0.63654,-0.17983q0.40247,-0.08849 0.81637,-0.08849q0.40247,0 0.70504,0.07136q0.30257,0.06851 0.49953,0.18554q0.23406,0.13986 0.34824,0.33967q0.11418,0.19981 0.11418,0.46813q0,0.35395 -0.21979,0.63369q-0.2198,0.27688 -0.57945,0.35395l0,0.03996q0.14557,0.01998 0.30827,0.07992q0.16271,0.05994 0.29687,0.17412l-0.00011,0z" />
     <path id="path8416" d="m108.54444,66.94307q0,0.53663 -0.097,0.96195q-0.097,0.42245 -0.30257,0.69362q-0.21123,0.27688 -0.54234,0.41961q-0.33112,0.13986 -0.81637,0.13986q-0.47669,0 -0.81352,-0.14272q-0.33682,-0.14272 -0.5452,-0.42245q-0.21122,-0.27974 -0.30542,-0.69363q-0.0942,-0.41675 -0.0942,-0.95338q0,-0.55377 0.097,-0.96195q0.097,-0.40819 0.30828,-0.69077q0.21123,-0.27974 0.54806,-0.41961q0.33682,-0.13986 0.80495,-0.13986q0.48811,0 0.81922,0.14557q0.33111,0.14272 0.54234,0.42817q0.20838,0.27973 0.30257,0.69077q0.0942,0.40819 0.0942,0.94482zm-1.10467,0q0,-0.7707 -0.15128,-1.0961q-0.15129,-0.32826 -0.50238,-0.32826q-0.3511,0 -0.50238,0.32826q-0.15129,0.3254 -0.15129,1.10181q0,0.75643 0.15414,1.09039q0.15414,0.33397 0.49953,0.33397q0.34538,0 0.49952,-0.33397q0.15414,-0.33396 0.15414,-1.0961z" />
    </g>
    <g font-style="normal" font-weight="bold" font-size="5.84586px" font-family="Sans" text-anchor="middle" display="inline" fill="#ffffff" stroke-width="1px" id="g8418" transform="matrix(0.95863245,0.28463559,-0.28463342,0.95863978,0,0)">
     <path id="path8420" d="m145.2977,-2.27527q0.13987,0.11989 0.22265,0.27974q0.0828,0.15984 0.0828,0.42531q0,0.29971 -0.11989,0.55946q-0.11703,0.25976 -0.36251,0.44529q-0.23977,0.17983 -0.56518,0.27688q-0.32255,0.0942 -0.78497,0.0942q-0.52806,0 -0.9077,-0.08278q-0.37679,-0.08278 -0.6137,-0.18554l0,-0.93339l0.11132,0q0.24548,0.14843 0.58516,0.25689q0.34253,0.10847 0.62511,0.10847q0.16556,0 0.35966,-0.02569q0.1941,-0.02854 0.32826,-0.11988q0.10561,-0.07137 0.16841,-0.17127q0.0628,-0.10276 0.0628,-0.29401q0,-0.18553 -0.0856,-0.28544q-0.0856,-0.10276 -0.2255,-0.14557q-0.13987,-0.04568 -0.33683,-0.04853q-0.19695,-0.00571 -0.36536,-0.00571l-0.23406,0l0,-0.75928l0.24262,0q0.22265,0 0.39391,-0.01427q0.17127,-0.01427 0.29115,-0.06565q0.1256,-0.05423 0.1884,-0.14272q0.0628,-0.09134 0.0628,-0.26546q0,-0.12845 -0.0657,-0.20552q-0.0657,-0.07993 -0.16556,-0.1256q-0.11132,-0.05138 -0.2626,-0.0685q-0.15129,-0.01713 -0.25976,-0.01713q-0.26831,0 -0.5823,0.0942q-0.31398,0.09134 -0.60799,0.26546l-0.10561,0l0,-0.92198q0.23406,-0.0942 0.63653,-0.17983q0.40248,-0.08849 0.81637,-0.08849q0.40247,0 0.70504,0.07136q0.30257,0.06851 0.49953,0.18554q0.23406,0.13987 0.34824,0.33968q0.11417,0.19981 0.11417,0.46812q0,0.35395 -0.21979,0.63369q-0.21979,0.27688 -0.57945,0.35394l0,0.03997q0.14558,0.01998 0.30828,0.07992q0.1627,0.05994 0.29686,0.17412l-0.00001,0z" />
     <path id="path8422" d="m149.84195,-2.40943q0,0.53664 -0.097,0.96195q-0.097,0.42245 -0.30257,0.69362q-0.21123,0.27688 -0.54234,0.4196q-0.33112,0.13987 -0.81637,0.13987q-0.47669,0 -0.81351,-0.14272q-0.33682,-0.14272 -0.54519,-0.42246q-0.21123,-0.27973 -0.30543,-0.69362q-0.0942,-0.41675 -0.0942,-0.95338q0,-0.55376 0.097,-0.96194q0.097,-0.40819 0.30827,-0.69077q0.21123,-0.27974 0.54805,-0.41961q0.33683,-0.13986 0.80495,-0.13986q0.48811,0 0.81922,0.14557q0.33112,0.14272 0.54234,0.42817q0.20838,0.27973 0.30257,0.69077q0.0942,0.40818 0.0942,0.94481l0.00001,0zm-1.10466,0q0,-0.77069 -0.15129,-1.0961q-0.15128,-0.32826 -0.50238,-0.32826q-0.35109,0 -0.50238,0.32826q-0.15128,0.32541 -0.15128,1.10181q0,0.75643 0.15414,1.09039q0.15414,0.33397 0.49952,0.33397q0.34539,0 0.49953,-0.33397q0.15414,-0.33396 0.15414,-1.0961z" />
    </g>
    <path fill="#ffffff" stroke-width="3" stroke-miterlimit="4" stroke-dashoffset="0"  id="path8424" d="m129.28516,40.81836c-0.31424,0.0004 -0.62744,0.01136 -0.94141,0.01758l0.0977,2.51367c-0.72847,0.01475 -1.45537,0.04266 -2.18164,0.08984l-0.0977,-2.51367c-0.64747,0.0406 -1.29242,0.11101 -1.9375,0.17578l0.29687,2.48242c-0.72351,0.07298 -1.44663,0.15856 -2.16601,0.26367l-0.29883,-2.48046c-0.62874,0.09006 -1.25558,0.19152 -1.88086,0.30273l0.4961,2.45508c-0.71603,0.13026 -1.42871,0.27922 -2.13868,0.4414l-0.49804,-2.46484c-0.63672,0.14083 -1.27079,0.29646 -1.90235,0.46094l0.69727,2.42773c-0.34484,0.0919 -0.69022,0.1798 -1.0332,0.2793c1.36283,4.37129 2.71833,8.74938 4.08398,13.11719c3.06247,-0.85007 6.22604,-1.28107 9.4043,-1.28125c3.17826,0.00018 6.34182,0.43118 9.40429,1.28125c1.36565,-4.36781 2.72116,-8.7459 4.08399,-13.11719c-0.35924,-0.10421 -0.72077,-0.19709 -1.08203,-0.29297l0.69726,-2.4375c-0.61159,-0.162 -1.22716,-0.30979 -1.84375,-0.44922l-0.5,2.47852c-0.71007,-0.16233 -1.42254,-0.31296 -2.13867,-0.44336l0.49805,-2.46875c-0.62355,-0.11357 -1.24984,-0.20791 -1.87696,-0.29883l-0.29882,2.49219c-0.72006,-0.10542 -1.44377,-0.1924 -2.16797,-0.26563l0.30078,-2.49414c-0.63727,-0.06513 -1.27666,-0.10782 -1.91602,-0.15039l-0.10156,2.50196c-0.72692,-0.04772 -1.45445,-0.07657 -2.18359,-0.0918l0.10156,-2.50391c-0.32566,-0.0073 -0.65049,-0.02692 -0.97656,-0.02734z"/>
    <g font-style="normal" font-weight="normal" font-size="6.71175px" font-family="Arial" text-anchor="middle" fill="#000000" stroke-width="1px" id="g8426">
     <path id="path8428" d="m128.4347,51.44607l-0.5899,0l0,-3.75897q-0.21302,0.20319 -0.56041,0.40637q-0.34411,0.20319 -0.61939,0.30478l0,-0.57023q0.49486,-0.23268 0.86518,-0.56368q0.37033,-0.331 0.52436,-0.64234l0.38016,0l0,4.82407z" />
     <path id="path8430" d="m128.83574,49.07664q0,-0.85208 0.17369,-1.36988q0.17697,-0.52108 0.52108,-0.80292q0.34739,-0.28184 0.87174,-0.28184q0.38672,0 0.67839,0.15731q0.29167,0.15403 0.48175,0.44898q0.19008,0.29167 0.29823,0.71443q0.10815,0.41949 0.10815,1.13392q0,0.84552 -0.1737,1.3666q-0.17369,0.5178 -0.52108,0.80292q-0.3441,0.28184 -0.87174,0.28184q-0.69477,0 -1.09131,-0.49814q-0.4752,-0.59973 -0.4752,-1.95322zm0.60629,0q0,1.18308 0.27528,1.57634q0.27857,0.38999 0.68494,0.38999q0.40638,0 0.68167,-0.39326q0.27856,-0.39327 0.27856,-1.57307q0,-1.18635 -0.27856,-1.57634q-0.27529,-0.38999 -0.68822,-0.38999q-0.40638,0 -0.64889,0.3441q-0.30478,0.43915 -0.30478,1.62223z" />
    </g>
    <g font-style="normal" font-weight="normal" font-size="6.71197px" font-family="Arial" text-anchor="middle" fill="#000000" stroke-width="1px" id="g8432" transform="matrix(0.98574922,-0.1684126,0.16840177,0.98568581,0,0)">
     <path id="path8434" d="m110.76123,69.54311q-0.36707,-0.13437 -0.54404,-0.38345q-0.17698,-0.24908 -0.17698,-0.59647q0,-0.52438 0.3769,-0.88161q0.37689,-0.35722 1.00286,-0.35722q0.62924,0 1.01269,0.36706q0.38345,0.36378 0.38345,0.88815q0,0.33429 -0.17698,0.58337q-0.17369,0.2458 -0.53092,0.38017q0.44244,0.1442 0.67185,0.46538q0.23269,0.32118 0.23269,0.76689q0,0.61614 -0.43589,1.03564q-0.43588,0.4195 -1.14706,0.4195q-0.71118,0 -1.14706,-0.4195q-0.43589,-0.42278 -0.43589,-1.05202q0,-0.46866 0.23597,-0.78329q0.23924,-0.3179 0.67841,-0.4326zm-0.11799,-0.99959q0,0.34084 0.21958,0.55715q0.21958,0.2163 0.57026,0.2163q0.34084,0 0.55714,-0.21302q0.21958,-0.21631 0.21958,-0.52765q0,-0.32446 -0.22613,-0.54404q-0.22286,-0.22286 -0.55715,-0.22286q-0.33756,0 -0.56042,0.21631q-0.22286,0.2163 -0.22286,0.51781zm-0.19008,2.21875q0,0.25236 0.11798,0.48833q0.12126,0.23596 0.35723,0.36705q0.23597,0.12782 0.50798,0.12782q0.42278,0 0.69808,-0.27202q0.27529,-0.27202 0.27529,-0.69151q0,-0.42606 -0.28513,-0.70463q-0.28185,-0.27857 -0.7079,-0.27857q-0.41622,0 -0.69152,0.27529q-0.27201,0.2753 -0.27201,0.68824z" />
    </g>
    <g font-style="normal" font-weight="normal" font-size="6.71175px" font-family="Arial" text-anchor="middle" fill="#000000" stroke-width="1px" id="g8436" transform="matrix(0.98297676,0.18372994,-0.18372994,0.98297676,0,0)">
     <path id="path8438" d="m143.33019,26.50995l-0.5899,0l0,-3.75898q-0.21302,0.20319 -0.56041,0.40638q-0.3441,0.20319 -0.61939,0.30478l0,-0.57024q0.49486,-0.23268 0.86519,-0.56368q0.37032,-0.331 0.52435,-0.64234l0.38016,0l0,4.82408z" />
     <path id="path8440" d="m146.83149,25.94299l0,0.56696l-3.17563,0q-0.007,-0.21302 0.0688,-0.40966q0.12126,-0.32444 0.38671,-0.63906q0.26873,-0.31461 0.77343,-0.72754q0.78325,-0.64233 1.05854,-1.01594q0.27529,-0.37688 0.27529,-0.71115q0,-0.35067 -0.25235,-0.5899q-0.24907,-0.24252 -0.65217,-0.24252q-0.42604,0 -0.68166,0.25562q-0.25562,0.25563 -0.2589,0.70788l-0.60629,-0.06227q0.0623,-0.67838 0.46865,-1.03232q0.40637,-0.35722 1.09131,-0.35722q0.69149,0 1.09459,0.38344q0.4031,0.38343 0.4031,0.95039q0,0.2884 -0.11798,0.56696q-0.11798,0.27857 -0.39327,0.58662q-0.272,0.30806 -0.90779,0.84553q-0.53091,0.4457 -0.68166,0.60628q-0.15075,0.15731 -0.24907,0.31789l2.35633,0l0.00002,0.00001z" />
    </g>
    <path fill="none" fill-rule="evenodd" stroke="#000000" stroke-width="0.5" stroke-miterlimit="4"     id="path8442" d="m132.76779,57.27262l1.36791,-13.7506"/>
    <path fill="none" fill-rule="evenodd" stroke="#000000" stroke-width="0.5" stroke-miterlimit="4"     id="path8444" d="m125.96945,57.25658l-1.30299,-13.7569"/>
    <path fill="none" fill-rule="evenodd" stroke="#000000" stroke-width="0.5" stroke-miterlimit="4"     id="path8446" d="m120.52483,58.20828l-3.44205,-13.38291"/>
    <path fill="none" fill-rule="evenodd" stroke="#000000" stroke-width="0.5" stroke-miterlimit="4"    id="path8448" d="m129.286,43.32422l0,2.67578m0,6.60849l0,4.50781"/>
    <path fill="none" fill-rule="evenodd" stroke="#000000" stroke-width="0.5" stroke-miterlimit="4"     id="path8450" d="m120.46893,44.12454l0.48196,2.63202m1.19033,6.5004l0.81195,4.43408"/>
    <path fill="none" fill-rule="evenodd" stroke="#000000" stroke-width="0.5" stroke-miterlimit="4"     id="path8452" d="m138.62977,44.22397l-0.51076,2.62658m-1.26144,6.48699l-0.86045,4.42492"/>
   </g>
   <path fill="#000000" stroke-width="1px"  id="path8456" d="m147.9614,152.24314l-2.85637,1.02126l-0.26713,-0.74714l0.90231,-0.32261l-0.80858,-2.26153l-0.90231,0.32261l-0.24967,-0.69829q0.2069,-0.074 0.38835,-0.16476q0.1804,-0.0937 0.28526,-0.19927q0.12374,-0.12527 0.15735,-0.26693q0.0336,-0.14166 -0.0165,-0.31818l0.95116,-0.34007l1.26681,3.54315l0.8822,-0.31542l0.26713,0.74715l-0.00001,0.00003z"/>
   <path fill="#000000" stroke-width="1px"  id="path8458" d="m151.6997,149.79492l-0.58334,0.20857l0.35651,0.99714l-1.05461,0.37706l-0.35652,-0.99714l-2.07187,0.74077l-0.28973,-0.81036l1.11521,-3.19892l1.12358,-0.40172l0.89797,2.51154l0.58334,-0.20856l0.27946,0.78162zm-1.91742,-0.196l-0.55275,-1.546l-0.69152,1.99088l1.24427,-0.44488z"/>
   <path fill="#000000" stroke-width="1px"  id="path8460" d="m154.95784,147.32715q0.19315,0.54024 0.24854,1.00334q0.0543,0.46022 -0.0549,0.80719q-0.11299,0.35477 -0.39496,0.61763q-0.28299,0.26 -0.7715,0.43466q-0.4799,0.17158 -0.87035,0.14913q-0.39046,-0.0224 -0.70092,-0.22906q-0.31334,-0.20558 -0.55714,-0.58835q-0.24484,-0.38565 -0.43799,-0.92589q-0.19932,-0.55748 -0.24854,-1.00333q-0.0492,-0.44586 0.0617,-0.80637q0.11195,-0.35765 0.4007,-0.61969q0.28874,-0.26205 0.76001,-0.43054q0.49139,-0.17569 0.87713,-0.14832q0.38471,0.0245 0.7001,0.23583q0.31046,0.20662 0.55323,0.58651q0.24175,0.37702 0.43491,0.91726l-0.00002,0zm-1.11209,0.39761q-0.2774,-0.77587 -0.54683,-1.04901q-0.27045,-0.27602 -0.62391,-0.14964q-0.35345,0.12637 -0.3876,0.5113q-0.0352,0.38204 0.24429,1.16366q0.27226,0.7615 0.54765,1.04224q0.27538,0.28073 0.62308,0.15641q0.34771,-0.12432 0.38268,-0.51601q0.035,-0.39169 -0.23936,-1.15895z"/>
   <path fill="#000000" stroke-width="1px"  id="path8462" d="m86.93566,138.65108l-2.32322,-1.95051l0.5102,-0.60768l0.73389,0.61615l1.54431,-1.8394l-0.73389,-0.61616l0.47684,-0.56795q0.16828,0.14128 0.33822,0.25211q0.17194,0.10845 0.316,0.1457q0.1706,0.0436 0.30986,0.001q0.13926,-0.0425 0.26634,-0.17485l0.77362,0.64951l-2.41948,2.88181l0.71753,0.60242l-0.5102,0.60768l-0.00002,0.00017z"/>
   <path fill="#000000" stroke-width="1px"  id="path8464" d="m91.03706,140.43686q-0.38853,0.46277 -1.03077,0.42564q-0.63991,-0.0352 -1.32705,-0.61209q-0.38565,-0.32377 -0.59472,-0.63479q-0.20908,-0.31101 -0.27132,-0.60234q-0.06185,-0.28703 0.0067,-0.54428q0.07088,-0.25529 0.24945,-0.46797q0.21977,-0.26177 0.54045,-0.33522q0.32498,-0.0738 0.82882,0.0902l0.01177,-0.014q-0.1861,-0.39534 -0.1501,-0.72772q0.036,-0.33239 0.27146,-0.61286q0.34733,-0.41369 0.95237,-0.35599q0.60505,0.0577 1.21974,0.57379q0.64508,0.54159 0.80757,1.08844q0.1668,0.54647 -0.16876,0.94615q-0.208,0.24774 -0.52512,0.31223q-0.31713,0.0645 -0.74881,-0.0668l-0.01177,0.014q0.24884,0.44401 0.2279,0.82491q-0.02093,0.38089 -0.2878,0.69876l-0.00001,-0.00006zm0.38477,-2.41845q0.14913,-0.17762 0.09954,-0.39857q-0.04726,-0.21899 -0.27397,-0.40933q-0.08414,-0.0707 -0.19064,-0.12415q-0.10416,-0.0516 -0.20998,-0.0726q-0.10116,-0.0172 -0.20049,0.011q-0.09739,0.0258 -0.16607,0.10763q-0.11577,0.13789 -0.1034,0.27978q0.01471,0.14385 0.12758,0.37011q0.04191,0.083 0.1188,0.21921q0.08115,0.1359 0.19926,0.3227q0.21348,-0.036 0.3446,-0.0972q0.13112,-0.0613 0.25475,-0.20851l0.00002,-0.00007zm-1.31096,1.70859q0.14129,-0.16829 0.12975,-0.3254q-0.01153,-0.15713 -0.17912,-0.48909q-0.04768,-0.0998 -0.15177,-0.27486q-0.1041,-0.17501 -0.17318,-0.29681q-0.17703,0.007 -0.36872,0.069q-0.18739,0.0618 -0.32279,0.2231q-0.20407,0.24307 -0.15278,0.53319q0.05559,0.28974 0.33606,0.52521q0.07479,0.0628 0.19298,0.12611q0.12011,0.061 0.23185,0.0751q0.12928,0.0169 0.24152,-0.0124q0.11225,-0.0293 0.21625,-0.15315l-0.00005,0z"/>
   <path fill="#000000" stroke-width="1px"  id="path8466" d="m94.71065,142.21012q-0.36891,0.4394 -0.74076,0.72093q-0.36988,0.2792 -0.72458,0.35995q-0.3633,0.0815 -0.73253,-0.0293q-0.36728,-0.11309 -0.76461,-0.44668q-0.39031,-0.3277 -0.56799,-0.67611q-0.17768,-0.34842 -0.156,-0.72071q0.01935,-0.37426 0.22675,-0.77791q0.20937,-0.406 0.57828,-0.8454q0.38068,-0.45342 0.74075,-0.72093q0.36007,-0.26751 0.72729,-0.35368q0.36526,-0.0838 0.73721,0.0332q0.37194,0.11702 0.75525,0.43884q0.39967,0.33555 0.57071,0.68237q0.17301,0.34449 0.14974,0.72342q-0.02169,0.3723 -0.22713,0.77361q-0.20348,0.39898 -0.57238,0.83838l0,0.00002zm-0.90452,-0.7594q0.52982,-0.63105 0.62964,-1.0015q0.1018,-0.37279 -0.18568,-0.61415q-0.28748,-0.24136 -0.63703,-0.0766q-0.34757,0.16245 -0.88131,0.79818q-0.52,0.61936 -0.62338,0.99878q-0.10337,0.37942 0.17944,0.61685q0.2828,0.23744 0.6386,0.0699q0.3558,-0.1675 0.87972,-0.79154l0,0.00008z"/>
   <path fill="#000000" stroke-width="1px"  id="path8468" d="m115.69173,153.59485l-2.98624,-0.53311l0.13945,-0.78111l0.94334,0.16841l0.42208,-2.36435l-0.94333,-0.16841l0.13032,-0.73004q0.21631,0.0386 0.41888,0.05q0.20311,0.008 0.34657,-0.0312q0.16963,-0.0472 0.26919,-0.15345q0.0996,-0.10623 0.14376,-0.28433l0.99441,0.17752l-0.66129,3.70425l0.92231,0.16465l-0.13945,0.78111l0,0.00006z"/>
   <path fill="#000000" stroke-width="1px"  id="path8470" d="m120.17124,152.82284q-0.0617,0.34549 -0.24202,0.6264q-0.18035,0.2809 -0.44568,0.44744q-0.28304,0.17887 -0.62541,0.23865q-0.33937,0.0603 -0.76898,-0.0164q-0.40257,-0.0719 -0.71673,-0.23956q-0.31063,-0.17015 -0.50774,-0.43784q-0.22726,-0.30718 -0.29853,-0.74149q-0.0713,-0.43432 0.0301,-1.00214q0.10512,-0.58883 0.32183,-1.02134q0.21671,-0.43251 0.5859,-0.72931q0.35449,-0.28392 0.8564,-0.38651q0.50492,-0.10207 1.15384,0.0138q0.21931,0.0391 0.47533,0.11584q0.25601,0.0767 0.33143,0.10569l-0.15715,0.88024l-0.11416,-0.0204q-0.0741,-0.0536 -0.26084,-0.13646q-0.18315,-0.0854 -0.4295,-0.1294q-0.57681,-0.10297 -0.94869,0.12205q-0.37187,0.225 -0.52806,0.71792q0.256,-0.0969 0.52638,-0.13543q0.27391,-0.041 0.57134,0.0121q0.26137,0.0467 0.47296,0.1464q0.2146,0.10028 0.38327,0.26683q0.21824,0.21876 0.3159,0.53999q0.0977,0.32123 0.0188,0.76286l0.00001,0.00007zm-1.48761,0.43194q0.11137,-0.0855 0.19011,-0.21406q0.0823,-0.13102 0.1252,-0.37136q0.0391,-0.21932 0.00073,-0.36877q-0.0379,-0.15246 -0.13403,-0.25643q-0.0931,-0.10338 -0.23498,-0.15975q-0.1413,-0.0594 -0.29752,-0.0873q-0.13219,-0.0236 -0.28175,-0.0193q-0.14957,0.004 -0.27779,0.0279q-0.005,0.03 -0.0208,0.0986q-0.0154,0.0686 -0.0342,0.17371q-0.066,0.36952 -0.0368,0.62273q0.0327,0.25074 0.13338,0.39892q0.0675,0.10814 0.17361,0.17359q0.10666,0.0624 0.23885,0.086q0.0991,0.0177 0.22736,-0.006q0.12822,-0.0236 0.22842,-0.0987l0.00021,0.00022z"/>
   <path fill="#000000" stroke-width="1px"  id="path8472" d="m124.20606,152.80534q-0.10083,0.5648 -0.28289,0.9942q-0.18152,0.4264 -0.44878,0.67319q-0.27433,0.25172 -0.64964,0.33972q-0.37478,0.085 -0.8855,-0.006q-0.50172,-0.0896 -0.8294,-0.30307q-0.32769,-0.2135 -0.49444,-0.54707q-0.16975,-0.3341 -0.19113,-0.78742q-0.0208,-0.45633 0.08,-1.02113q0.10404,-0.58282 0.28288,-0.9942q0.17884,-0.41137 0.45425,-0.6691q0.27488,-0.25474 0.65566,-0.33865q0.38078,-0.0839 0.87348,0.004q0.51373,0.0917 0.83487,0.30714q0.32168,0.21243 0.49036,0.55254q0.16675,0.33358 0.18866,0.78389q0.0224,0.4473 -0.0784,1.0121l0.00002,-0.00014zm-1.16265,-0.20756q0.14481,-0.81114 0.0467,-1.18205q-0.0975,-0.37392 -0.46708,-0.43989q-0.36952,-0.066 -0.59042,0.2511q-0.22037,0.31406 -0.36625,1.13122q-0.14213,0.79612 -0.0427,1.17659q0.0995,0.38045 0.463,0.44535q0.36351,0.0649 0.58849,-0.25764q0.22498,-0.32254 0.36818,-1.12468l0.00008,0z"/>
   <g id="g9050">
    <path fill="#ffffff" stroke-width="1px" d="m135.15351,133.54003l-1.39644,0.25242l0.65194,3.60671l-1.15319,0.20845l-0.65194,-3.60672l-1.39644,0.25242l-0.15633,-0.86489l3.94606,-0.71328l0.15634,0.86489z" id="path8474" />
    <path fill="#ffffff" stroke-width="1px" d="m140.287,136.33667l-1.19223,0.2155l-0.47271,-0.84802l-1.65771,0.29965l-0.14592,0.95984l-1.1622,0.21007l0.84342,-4.77016l1.32737,-0.23993l2.45998,4.17305zm-2.09242,-1.40188l-0.83944,-1.50431l-0.25969,1.70299l1.09913,-0.19868z" id="path8476" />
    <path fill="#ffffff" stroke-width="1px" d="m143.91689,134.22917q0.11942,0.66069 -0.36725,1.17662q-0.4842,0.51239 -1.44519,0.6861q-0.55558,0.10042 -0.98738,0.0792q-0.42934,-0.0247 -0.81685,-0.10975l-0.19379,-1.0721l0.12613,-0.0228q0.40894,0.2207 0.87808,0.29406q0.47214,0.0728 0.88056,-0.001q0.10511,-0.019 0.27303,-0.0679q0.16792,-0.0489 0.26843,-0.11051q0.12238,-0.0779 0.1918,-0.17423q0.0724,-0.0968 0.0437,-0.25599q-0.0266,-0.14715 -0.17173,-0.22946q-0.14266,-0.0858 -0.39323,-0.0995q-0.2631,-0.0144 -0.55463,-0.0145q-0.28905,-0.004 -0.54997,-0.0401q-0.59769,-0.0811 -0.9034,-0.3484q-0.30325,-0.27081 -0.3874,-0.7363q-0.1129,-0.62463 0.37456,-1.11901q0.48993,-0.49791 1.36983,-0.65696q0.44146,-0.0798 0.88664,-0.0703q0.44765,0.006 0.78631,0.078l0.18619,1.03006l-0.12312,0.0223q-0.30937,-0.16737 -0.72883,-0.24042q-0.417,-0.0766 -0.82542,-0.003q-0.14415,0.0261 -0.28449,0.0732q-0.13789,0.0435 -0.26026,0.12143q-0.10897,0.0662 -0.17624,0.17451q-0.0678,0.10534 -0.0466,0.22242q0.032,0.17718 0.18454,0.24885q0.15196,0.0687 0.54146,0.0789q0.25549,0.007 0.4894,0.0139q0.23692,0.007 0.51339,0.0437q0.54393,0.0753 0.83984,0.32268q0.29836,0.24379 0.38196,0.70626l-0.00007,0.00004z" id="path8478" />
   </g>
   <g display="inline" id="g9206">
    <path fill="#ffffff" id="path7404" d="m193.37242,91.58193l0,1.38554l-17.31921,0l0,-1.38554l17.31921,0z"   />
    <circle fill="#ffffff" stroke="#1a1a1a" stroke-width="0.41565" stroke-miterlimit="4" stroke-dashoffset="0" r="0" cy="31.47263" cx="-22.80419" id="circle7705"/>
    <path fill="#ffffff"    d="m192.46212,103.0441l-0.12664,0.71818l-13.64004,-2.4051l0.12664,-0.71819l13.64004,2.40511z" id="path8023"/>
    <path fill="#ffffff"    d="m190.02169,71.81176l0.42816,1.31772l-16.47155,5.35193l-0.42816,-1.31772l16.47155,-5.35193z" id="path8025"/>
    <path fill="#ffffff" id="path8027" d="m180.72564,54.04464l0.8144,1.12092l-14.01153,10.17998l-0.81441,-1.12092l14.01154,-10.17998z"   />
    <path fill="#ffffff"    d="m166.39423,40.01975l1.12092,0.81439l-10.17997,14.01154l-1.12093,-0.8144l10.17998,-14.01153z" id="path8029"/>
    <path fill="#ffffff"    d="m189.74441,113.54287l-0.47388,1.30198l-16.27473,-5.92352l0.47388,-1.30198l16.27473,5.92352z" id="path8055"/>
    <path fill="#ffffff" id="path8057" d="m178.82412,132.93855l-0.89061,1.06138l-13.26728,-11.13257l0.89061,-1.06138l13.26728,11.13257z"   />
    <path fill="#ffffff"    d="m161.92869,147.42957l-1.19992,0.69276l-8.6596,-14.99887l1.19992,-0.69276l8.6596,14.99887z" id="path8059"/>
    <path fill="#ffffff"    d="m80.63662,133.99991l-0.8906,-1.06141l13.26728,-11.13257l0.8906,1.06141l-13.26728,11.13257z" id="path8067"/>
    <path fill="#ffffff" id="path8069" d="m69.29961,114.84482l-0.47387,-1.30201l16.27473,-5.92351l0.47387,1.302l-16.27473,5.92352z"   />
    <path fill="#ffffff"    d="m65.19773,92.96743l0.00003,-1.38556l17.3192,0.00001l-0.00002,1.38555l-17.31921,0z" id="path8071"/>
    <path fill="#ffffff" id="path8073" d="m65.19773,92.96743l0.00003,-1.38556l17.3192,0.00001l-0.00002,1.38555l-17.31921,0z"   />
    <path fill="#ffffff"    d="m68.82574,71.00649l0.47391,-1.30199l16.27472,5.92352l-0.4739,1.30198l-16.27473,-5.92351z" id="path8075"/>
    <path fill="#ffffff" id="path8087" d="m79.74603,51.61081l0.89064,-1.06139l13.26727,11.13257l-0.89063,1.06138l-13.26728,-11.13256z"   />
    <path fill="#ffffff" id="path8089" d="m184.96877,124.00215l-0.36464,0.63156l-11.99485,-6.92522l0.36464,-0.63157l11.99485,6.92523z"   />
    <path fill="#ffffff"    d="m170.75925,141.1334l-0.55865,0.46876l-8.90291,-10.61006l0.55866,-0.46877l8.9029,10.61007z" id="path8091"/>
    <path fill="#ffffff" id="path8093" d="m73.96773,124.63368l-0.36464,-0.63156l11.99483,-6.92523l0.36465,0.63157l-11.99484,6.92522z"   />
    <path fill="#ffffff"    d="m66.2364,103.76225l-0.12664,-0.71819l13.64001,-2.40511l0.12665,0.7182l-13.64002,2.4051z" id="path8097"/>
    <path fill="#ffffff" id="path8153" d="m147.99415,142.609l-0.68528,0.24941l-1.18386,-3.25259l0.68529,-0.24942l1.18385,3.2526z"   />
    <path fill="#ffffff"    d="m129.65056,145.97206l-0.72926,-0.00001l-0.00002,-3.46134l0.72927,0.00001l0.00001,3.46134z" id="path8157"/>
    <path fill="#ffffff" id="path8159" d="m111.26299,142.85842l-0.68528,-0.24943l1.18382,-3.2526l0.68529,0.24944l-1.18383,3.25259z"   />
    <path fill="#ffffff"    d="m95.04924,133.64364l-0.55863,-0.46877l2.22488,-2.65155l0.55865,0.46878l-2.2249,2.65154z" id="path8161"/>
    <path fill="#ffffff" id="path8826" d="m192.52637,81.88921l0.11408,0.72029l-13.67994,2.16669l-0.11408,-0.72029l13.67994,-2.16669z"   />
    <path fill="#ffffff"    d="m186.22188,62.85515l0.33107,0.64977l-12.34085,6.28799l-0.33107,-0.64979l12.34085,-6.28797z" id="path8828"/>
    <path fill="#ffffff" id="path8830" d="m174.34411,46.70087l0.51565,0.51567l-9.79375,9.79376l-0.51566,-0.51568l9.79376,-9.79375z"   />
    <path fill="#ffffff"    d="m139.29252,145.03694l-1.36449,0.24059l-1.20688,-6.84457l1.36449,-0.24058l1.20688,6.84456z" id="path8961"/>
    <path fill="#ffffff" id="path8963" d="m120.64327,145.27753l-1.36449,-0.2406l1.2069,-6.84457l1.36448,0.2406l-1.20689,6.84457z"   />
    <path fill="#ffffff"    d="m103.03643,139.12519l-1.19991,-0.69278l3.47509,-6.019l1.1999,0.69277l-3.47508,6.01901z" id="path8965"/>
    <path fill="#ffffff" id="path8967" d="m88.59563,127.32199l-0.8906,-1.0614l5.32414,-4.46745l0.89059,1.06138l-5.32413,4.46747z"   />
    <path fill="#ffffff"    d="m66.05107,81.82826l0.24062,-1.36451l17.05608,3.00745l-0.24062,1.3645l-17.05608,-3.00744z" id="path9193"/>
    <path fill="#ffffff" id="path9195" d="m73.43743,60.83095l0.6928,-1.19992l14.99887,8.65961l-0.6928,1.19991l-14.99887,-8.6596z"   />
    <path fill="#ffffff" id="path9197" d="m65.41156,87.0524l0.06355,-0.7265l13.79773,1.20714l-0.06356,0.72651l-13.79772,-1.20715z"   />
    <path fill="#ffffff"    d="m67.28879,76.04006l0.18874,-0.70442l13.3785,3.58475l-0.18875,0.70443l-13.37849,-3.58476z" id="path9199"/>
    <path fill="#ffffff" id="path9202" d="m71.04978,65.52101l0.30819,-0.66095l12.55277,5.85345l-0.30821,0.66095l-12.55275,-5.85345z"   />
    <path fill="#ffffff"    d="m76.58024,55.81486l0.41828,-0.59739l11.34562,7.94428l-0.41829,0.59739l-11.34561,-7.94428z" id="path9204"/>
   </g>
   <path fill="url(#linearGradient8626)" stroke-width="0.5" stroke-miterlimit="4" stroke-dashoffset="0" d="m63.62648,92.04179l0.0413,2.57167l12.21787,-0.19613l0.38021,-0.63892c1.59753,-0.14134 5.157,-0.37833 6.42567,-0.75704c-1.26822,-0.37943 -4.83275,-0.51374 -6.44664,-0.5493l-0.40053,-0.62641l-12.21788,0.19613z" id="path8480"    />
   <path fill="#ffffff" stroke-width="1.7" stroke-miterlimit="4" d="m164.89818,43.28746l-4.07129,5.60059a53.6929,53.6929 0 0 1 22.15235,43.38576a53.6929,53.6929 0 0 1 -7.28418,26.90137l5.98535,3.46973a60.63625,60.63625 0 0 0 8.24219,-30.3711a60.63625,60.63625 0 0 0 -25.02442,-48.98634z" id="path10733" />
  </g>
  <circle fill="url(#radialGradient7273)" stroke-width="0.5" stroke-miterlimit="4" stroke-dashoffset="0" r="0" cy="272.4433" cx="184.34792" id="circle7152"/>
  <circle fill="url(#radialGradient7275)" stroke-width="0.5" stroke-miterlimit="4" stroke-dashoffset="0" r="0" cy="272.44415" cx="216.65787" id="circle7154"/>
  <circle fill="url(#radialGradient7277)" stroke-width="0.5" stroke-miterlimit="4" stroke-dashoffset="0" r="0" cy="272.44385" cx="184.34744" id="circle7156"/>
  <circle fill="url(#radialGradient7279)" stroke-width="0.5" stroke-miterlimit="4" stroke-dashoffset="0" r="0" cy="272.4447" cx="216.65739" id="circle7158"/>
 </g>
</svg>